<svg id="Layer_1" data-name="Layer 1" xmlns="http://www.w3.org/2000/svg" viewBox="0 0 134 123"><title>role-icons</title><g id="icon1.psd"><path d="M24.7571,105.7981C23.1685,99.21,26.5677,94.1787,30.224,89.4273c2.2915-2.9776,1.9007-3.78-1.7382-4.4577-11.135-2.0742-19.0275-10.1225-20.5352-20.25-.4336-2.9128-.7085-4.4056,3.23-2.89,6.5948,2.5383,10.4991-.298,10.7752-7.6671.28-7.4605.1063-14.939.0836-22.4094-.0244-8.051,3.2583-14.1946,10.6315-17.6541,7.2117-3.3837,13.9258-2.0363,19.8624,3.1275,1.3432,1.1684,2.4452,1.9266,4.3762,1.32,7.7389-2.4294,15.4127-1.4458,23.0223.7725C94.694,26.4273,103.01,37.8034,102.8684,54.5445a32.666,32.666,0,0,1-7.4756,20.6581c-1.8872,2.3306-1.75,3.7217.4685,5.7123A55.9319,55.9319,0,0,1,105.77,92.6685a19.7053,19.7053,0,0,1,3.4763,12.2135c-1.7781,1.3305-3.8433.8065-5.7886.811Q64.1072,105.7833,24.7571,105.7981Zm71.46-52.3422A28.8708,28.8708,0,0,0,89.9508,34.96c-1.4022-1.8388-2.333-2.4191-3.8888.0687C75.5673,51.81,60.51,57.9607,41.2867,53.5442c-3.8331-.8807-3.7462.7231-3.51,3.5012C39.0091,71.5711,52.9835,83.4518,68.1884,82.803A29.38,29.38,0,0,0,96.2173,53.4559ZM79.2776,97.594l.4763,1.5105a12.1861,12.1861,0,0,0,.5844-1.3106c1.4112-4.4722,5.81-5.5752,9.2122-7.2272,2.5562-1.2412,3.1783-2.5884,2.0588-4.288-1.0575-1.6056-2.2616-4.3617-5.4547-2.4991-12.9087,7.53-25.8916,7.57-38.7457-.1219-2.0887-1.25-3,.071-4.2443,1.1-1.84,1.5212-.4838,2.7837.5222,3.712,2.4792,2.2879,3.2588,6.5708,8.0287,6.2762,2.3673-.1462,3.17,3.6192,5.32,3.7867C64.43,99.1087,71.8614,99.2053,79.2776,97.594Z" style="fill:#09b0ef"/><path d="M24.7571,105.7981q39.35-.0417,78.7-.1051c1.9453-.0045,4.01.52,5.7886-.811,4.1489.0428,8.3007.0053,12.4455.156,2.8571.104,6.1985.3136,6.0489,4.2-.1345,3.4929-3.1329,3.6734-5.9571,3.6707q-31.8713-.0306-63.7425.008-22.3347-.0206-44.6694-.0451a19.56,19.56,0,0,1-3.9567-.148,3.65,3.65,0,0,1-3.2307-3.8028c.0294-2.3895,1.6447-3.013,3.6846-3.0278Q17.3128,105.8388,24.7571,105.7981Z" style="fill:#b5e7f9"/><path d="M96.2125,53.4575A29.3725,29.3725,0,0,1,68.1884,82.803c-15.2049.6488-29.1793-11.2319-30.4121-25.7576-.2358-2.7781-.3227-4.3819,3.51-3.5012C60.51,57.9607,75.5673,51.81,86.062,35.0288c1.5558-2.4878,2.4866-1.9075,3.8888-.0687A28.84,28.84,0,0,1,96.2125,53.4575Z" style="fill:#f9fcfe"/><path d="M79.2776,97.594c-7.4162,1.6113-14.8481,1.5147-22.2425.9384-2.15-.1675-2.9523-3.9329-5.32-3.7867-4.77.2946-5.55-3.9883-8.0287-6.2762-1.006-.9283-2.3627-2.1908-.5222-3.712,1.2446-1.0288,2.1556-2.35,4.2443-1.1C60.263,91.35,73.2459,91.31,86.1546,83.78c3.1931-1.8626,4.3972.8935,5.4547,2.4991,1.12,1.7.4974,3.0468-2.0588,4.288-3.4022,1.652-7.801,2.755-9.2122,7.2272a12.1861,12.1861,0,0,1-.5844,1.3106Z" style="fill:#eff9fd"/></g></svg>