<svg id="Layer_1" data-name="Layer 1" xmlns="http://www.w3.org/2000/svg" viewBox="0 0 134 118"><title>role-icons</title><g id="icon5.psd"><path d="M48.0385,15.1409q19.9215.1273,39.8428.2554a5.0724,5.0724,0,0,0,4.7147-2.3035c1.9335-3.36,3.666-1.6174,5.41.0174a14.4211,14.4211,0,0,1,2.3675,17.4071c-1.2748,2.2056-1.092,3.7164-.0516,5.8583,6.5306,13.4446,5.5117,26.4139-3.371,38.4456-2.0061,2.7172-1.6332,3.9649.6245,5.9858a53.033,53.033,0,0,1,9.8664,11.8148c2.302,3.7549,3.8807,7.7177,3.2374,12.2582l-84.5676.0363c-.9188-1.4706-.863-2.7543-.3235-4.5632,2.38-7.9786,7.5258-13.9716,13.3213-19.51,2.1129-2.0191,2.7483-3.3141.6786-6.0411C32.6346,65.3771,30.52,54.78,33.686,43.2594c.48-1.7459.8827-3.3121-.0467-5.2373-5.948-12.3205-.3447-21.6775,13.4263-22.68A7.3578,7.3578,0,0,0,48.0385,15.1409ZM40.9065,88.955a5.4607,5.4607,0,0,0-2.9727,3.7482c-1.9416.0882-2.0637,1.7615-2.6449,3.0347a6.2179,6.2179,0,0,0-1.3747,3.8848c-.7394.2857-1.912.47-1.5843,1.4718.5656,1.7291,2.2451.9986,3.4278,1.0014q30.8516.0734,61.7035.035a48.9579,48.9579,0,0,0,4.9715-.0835c1.893-.194,1.6338-1.2058.6438-2.3167a6.6328,6.6328,0,0,0-1.8251-3.789c-1.0365-1.1331-1.2637-3.0235-3.1484-3.3627a4.89,4.89,0,0,0-2.2636-3.6376c-1.7279-3.1142-4.4308-5.2973-7.896-4.3745-4.1487,1.1048-8.5676,1.7744-12.2164,4.3889-5.2852-.1268-10.62.5892-15.8241-.9223-2.3578.0061-4.3617-1.1326-6.5041-1.8963C48.0581,84.2334,42.7734,85.5182,40.9065,88.955Zm27.56-51.394-.001.3908c-7.1394,0-14.286.19-21.4147-.0856-3.2269-.1246-4.7652,1.0831-5.97,3.8966-5.4679,12.7677-.2726,29.114,11.6717,36.1905.8468.5016,1.8363,1.331,2.6543,1.2217,6.11-.8163,12.3433.7993,18.2767-.41,3.4647-.7061,6.8872,1.58,10.1221-.6372,10.0986-6.9209,17.8716-17.632,7.2492-30.3282-2.1565-2.5775-2.1912-5.1863,1.2844-6.89.8591-.4212,2.1231-.4727,1.7334-1.8747-.3659-1.3159-1.3854-1.5266-2.7189-1.5125C83.7257,37.6022,76.0961,37.561,68.4669,37.561Z" style="fill:#0ab0ef"/><path d="M26.1116,104.9163l84.5676-.0363c4.1587.0375,8.3174.0866,12.4763.1087,2.9664.0157,6.3433.2609,6.1957,4.0051-.1274,3.2323-3.4027,2.959-5.9141,2.9679q-19.2143.0683-38.4285.1505-34.6908-.0807-69.3818-.1651c-1.3313-.0032-2.6666-.072-3.9928.0081-2.3337.1408-4.11-.726-4.2316-3.1411-.1353-2.6877,1.79-3.7635,4.2332-3.8062C16.46,104.9237,21.2862,104.941,26.1116,104.9163Z" style="fill:#aee5f9"/><path d="M68.4669,37.561c7.6292,0,15.2588.0412,22.8871-.039,1.3335-.0141,2.353.1966,2.7189,1.5125.39,1.402-.8743,1.4535-1.7334,1.8747-3.4756,1.7041-3.4409,4.3129-1.2844,6.89,10.6224,12.6962,2.8494,23.4073-7.2492,30.3282-3.2349,2.2171-6.6574-.0689-10.1221.6372-5.9334,1.2093-12.1665-.4063-18.2767.41-.818.1093-1.8075-.72-2.6543-1.2217-11.9443-7.0765-17.14-23.4228-11.6717-36.19,1.2049-2.8135,2.7432-4.0212,5.97-3.8966,7.1287.2752,14.2753.0856,21.4147.0856ZM65.1891,63.777c-2.7248.4683-5.5873-.2068-8.3807.0178-2.5938.2085-3.9854,1.6046-3.8122,4.2178.1987,2.9982,1.8964,2.6021,4.1719,2.0218,3.5086-.8948,7.7824,1.3081,10.5618-2.689a1.3752,1.3752,0,0,1,1.2907.0044c2.6507,3.7611,6.6206,2.1446,10.0921,2.5774,1.9777.2466,4.5144,1.85,4.7049-1.8815.1646-3.224-1.906-4.29-4.8213-4.2751C74.394,63.7946,69.7915,63.777,65.1891,63.777Z" style="fill:#f8fcfe"/><path d="M33.9142,99.6227a6.2179,6.2179,0,0,1,1.3744-3.8845q32.9817.102,65.9641.2035a6.6383,6.6383,0,0,1,1.8237,3.7893c-8.46.0761-16.92.2353-25.3788.2091C63.103,99.895,48.5087,99.7347,33.9142,99.6227Z" style="fill:#6acef4"/><path d="M37.9338,92.7032a5.46,5.46,0,0,1,2.9729-3.7482c6.322-.5183,12.7476,1.1032,18.9962-.9215,5.2045,1.5115,10.5389.7955,15.8261.9222l20.11-.0143A4.89,4.89,0,0,1,98.1029,92.58C78.048,93.3275,57.991,93.0816,37.9338,92.7032Z" style="fill:#67cdf4"/><path d="M37.9338,92.7032c20.0572.3784,40.1142.6243,60.1691-.1235,1.8848.3385,2.112,2.2289,3.1492,3.362q-32.9812-.1016-65.9635-.2035C35.87,94.4647,35.9922,92.7914,37.9338,92.7032Z" style="fill:#e9f7fd"/><path d="M33.9142,99.6227c14.5945.112,29.1888.2723,43.7834.3174,8.4593.0262,16.9191-.133,25.3788-.2091.99,1.1106,1.2493,2.1224-.6437,2.3164a48.9579,48.9579,0,0,1-4.9715.0835q-30.8519.0041-61.7035-.035c-1.1827-.0028-2.8622.7277-3.4278-1.0014C32.0022,100.0929,33.1748,99.9084,33.9142,99.6227Z" style="fill:#e3f5fc"/><path d="M95.8394,88.9414l-20.11.0143c3.6468-2.6144,8.0657-3.284,12.2144-4.3888C91.4086,83.6441,94.1115,85.8272,95.8394,88.9414Z" style="fill:#dbf3fc"/><path d="M59.9029,88.0335c-6.2486,2.0247-12.6742.4032-18.9962.9215,1.8667-3.4368,7.1514-4.7216,12.4921-2.8178C55.5412,86.9009,57.5451,88.04,59.9029,88.0335Z" style="fill:#ecf8fd"/><path d="M65.1891,63.777c4.6024,0,9.2049.0176,13.8072-.0064,2.9153-.0152,4.9859,1.0511,4.8213,4.2751-.1905,3.7318-2.7272,2.1281-4.7049,1.8815-3.4715-.4328-7.4414,1.1837-10.0921-2.5774a1.3752,1.3752,0,0,0-1.2907-.0044c-2.7794,3.9971-7.0532,1.7942-10.5618,2.689-2.2755.58-3.9732.9764-4.1719-2.0218-.1732-2.6132,1.2184-4.0093,3.8122-4.2178C59.6018,63.57,62.4643,64.2453,65.1891,63.777Z" style="fill:#16b4f0"/></g></svg>