<svg id="Layer_1" data-name="Layer 1" xmlns="http://www.w3.org/2000/svg" viewBox="0 0 139 117"><title>role-icons</title><g id="icon3.psd"><path d="M22.461,100.8231c-1.1129-4.8785.5363-9.2,3.2754-12.9781,1.98-2.7306,2.3823-5.12.6357-7.9223a13.3449,13.3449,0,0,0-.35-10.825c-2.9877-6.1346-.6735-12.9943-2.168-19.5867-.8046-3.55-.1421-9.9089,2.5234-13.5815,2.4786-3.4149,4.06-6.1678,3.8206-10.4925-.1708-3.083,2.93-4.5924,5.7435-5.4286,3.2409-.963,6.2971-1.9808,7.8518-5.4633a5.1278,5.1278,0,0,1,2.6576-2.1308A46.865,46.865,0,0,1,65.3354,8.5082c2.26.0407,5.35.2545,6.5968,1.6739,3.9266,4.4709,8.4612,3.0031,13.1176,2.5873,5.9036-.5272,8.2326,1.2375,9.7357,6.7979.1728.6393.0621,1.5547.4639,1.9026,5.8929,5.1039,6.7889,12.783,10.1046,19.2071a8.1481,8.1481,0,0,1,1.0082,6.1434c-.6356,2.44-.9406,4.8884.17,7.314a3.9573,3.9573,0,0,1-.9062,4.579c-1.415,1.5728-2.3755,3.2381-1.0764,5.3562-1.5732,4.9067-.8967,10.6569-5.7859,14.3192-2.1059,1.5775.0059,2.8763.9,4.0884,4.0454,5.4851,8.4368,10.8235,7.0371,18.3855ZM41.668,79.536A42.6936,42.6936,0,0,0,30.0142,93.5629c-1.38,2.5944-1.6072,4.25,2.2919,4.2336q32.1076-.1341,64.216.0035c4.0733.0192,4.13-1.672,2.5257-4.4957A50.0131,50.0131,0,0,0,86.9584,78.9674c-1.1878-1.6213-2.2821-.5417-3.4083.1047q-18.8661,10.83-37.7726.0639C44.1778,78.22,42.851,77.4149,41.668,79.536ZM94.0373,46.427c-.3272-9.238-5.3229-17.83-15.0368-23.7526-3.4419-2.0987-5.9519-1.2646-9.46.6774C63.602,26.6392,59.0322,33.1655,50.945,32.071c-1.7724-.24-2.877,1.4416-3.8845,2.7764a13.096,13.096,0,0,1-3.51,3.4667C38.2462,41.59,34.6508,51.285,36.4642,57.2177,40.607,70.7709,54.5958,79.7484,68.5105,77.7841,83.07,75.7287,93.9949,63.2062,94.0373,46.427Z" style="fill:#09b0ef"/><path d="M22.461,100.8231l84.24.04q7.22.0063,14.4406.0127c2.199.0018,4.2706.7209,4.3133,3.1037.0425,2.3754-1.5122,3.9322-4.1941,3.8787-2.1569-.0431-4.3156.0041-6.4735.0041q-51.2922.0007-102.5845-.0008c-1.1619,0-2.3252-.0372-3.4856.0041-2.6.0925-4.7256-.4024-4.6636-3.6574.0572-2.9983,2.1031-3.3491,4.4645-3.3428C13.1656,100.8774,17.8133,100.84,22.461,100.8231Z" style="fill:#b5e7fa"/><path d="M94.0373,46.427C93.9949,63.2062,83.07,75.7287,68.5105,77.7841,54.5958,79.7484,40.607,70.7709,36.4642,57.2177,34.6508,51.285,38.2462,41.59,43.55,38.3141a13.096,13.096,0,0,0,3.51-3.4667c1.0075-1.3348,2.1121-3.0163,3.8845-2.7764,8.0872,1.0945,12.657-5.4318,18.5955-8.7192,3.5081-1.942,6.0181-2.7761,9.46-.6774C88.7144,28.5973,93.71,37.189,94.0373,46.427Z" style="fill:#fbfdfe"/><path d="M86.9584,78.9674A50.0131,50.0131,0,0,1,99.0478,93.3043c1.6044,2.8237,1.5476,4.5149-2.5257,4.4957q-32.1075-.1511-64.216-.0035c-3.8991.0163-3.6723-1.6392-2.2919-4.2336A42.6775,42.6775,0,0,1,41.6687,79.5367c2.2977,2.7646,3.4665,7.15,8.7006,5.5416,1.293-.3974,2.3816.9916,3.1622,2.0917.73,1.0287,1.3037,1.6633,2.8009.9408C61.06,85.83,66.2751,89.7623,71.05,87.1329c.188-.1035.6318.1634.91.3331,1.8358,1.1174,3.3294,1.2391,4.4032-1.0789a2.7369,2.7369,0,0,1,2.9818-1.4106C84.0044,85.61,85.8523,82.7792,86.9584,78.9674Z" style="fill:#c3ebf9"/><path d="M86.9584,78.9674c-1.1061,3.8118-2.954,6.6424-7.6129,6.0091a2.7369,2.7369,0,0,0-2.9818,1.4106c-1.0738,2.318-2.5674,2.1963-4.4032,1.0789-.2787-.17-.7225-.4366-.91-.3331-4.7749,2.6294-9.99-1.3034-14.7176.9779-1.4972.7225-2.0711.0879-2.8009-.9408-.7806-1.1-1.8692-2.4891-3.1622-2.0917-5.2341,1.6085-6.4029-2.777-8.7006-5.5416,1.1823-2.1218,2.5091-1.3172,4.1088-.4007Q64.6537,89.95,83.55,79.0721C84.6763,78.4257,85.7706,77.3461,86.9584,78.9674Z" style="fill:#ebf8fd"/></g></svg>