<svg id="Layer_1" data-name="Layer 1" xmlns="http://www.w3.org/2000/svg" viewBox="0 0 136 109"><title>role-icons</title><g id="icon2.psd"><path d="M40.248,15.7348c.9706-.792,4.6132.3983,2.0741-3.0278-.9482-1.2794.7369-1.4907,1.4512-1.7971C70.2259-.4394,95.9057,6.6741,106.1869,32.5737c.7943,2.001,4.9455,4.8524-.3433,7.7931-1.3264.7375-1.3192,6.3343-2.1611,9.685-1.4793,5.8869-3.515,11.4531-7.4679,16.074-1.82,2.1276-1.0833,3.2722.6272,4.8344a56.3258,56.3258,0,0,1,10.1435,12.1715c2.3684,3.87,4.1679,7.947,3.2657,12.6981q-41.8842.0309-83.77.0615c-1.2686-8.8085,4.053-14.6753,9.132-20.619,1.9294-2.2579,5.2092-4.1333,5.6882-6.6117.3851-1.9921-2.62-4.5765-3.9548-6.9913a35.8884,35.8884,0,0,1-3.229-28.8665c.3956-1.31,3.4631-3.8952-.8651-4.8945-1.2723-.2938-.0652-1.3319.3847-1.7819,1.5042-1.5043,3.103-2.9126,4.707-4.3959a2.3534,2.3534,0,0,0-2.931-.1078c-.8384.4681-1.2428-.0921-1.6128-.5794-.6444-.8486.2472-1.1066.7056-1.4256C36.4027,18.2982,38.3312,17.025,40.248,15.7348ZM68.4418,73.1592A29.569,29.569,0,0,0,97.4782,46.4443c.1577-1.6338.5054-3.3418-1.2421-4.4882-6.1072-4.0065-8.5946-10.3309-10.43-16.97-.658-2.38-1.5715-3.3332-4.1256-2.7294-11.2691,2.6641-22.7768,3.7358-34.2652,4.838-2.8561.274-4.3339,1.5192-5.5414,4.0462C32.6592,50.4244,47.025,73.217,68.4418,73.1592Zm-.055,19.732c10.5452,0,21.0924-.1189,31.6346.0611,3.9709.0678,4.1179-1.3565,2.524-4.3344-2.8589-5.3412-6.94-9.6313-11.2039-13.8157-1.7155-1.6835-3.0187-1.1165-4.7662-.1217-12.2016,6.9462-24.4556,6.9069-36.646-.0574-1.5129-.8643-2.7892-1.6676-4.391-.1534C41.0756,78.6883,36.9232,83.134,34.02,88.6454c-1.6877,3.2036-.9526,4.3531,2.7321,4.3C47.2949,92.7916,57.8415,92.891,68.3868,92.8912Z" style="fill:#0cb1ef"/><path d="M26.4813,95.8913q41.8853-.0307,83.77-.0615c4.7586.0232,9.518.0666,14.2773.0611,2.2738-.0027,3.8539.7255,3.9229,3.3261.0753,2.8364-1.5256,3.711-4.0635,3.6949-3.609-.023-7.2187.0647-10.8283.1064q-48.7422-.0531-97.484-.1088c-1.32-.0015-2.64.0254-3.9585-.018-2.4271-.08-4.41-1.1069-4.254-3.7433.1355-2.29,2.0269-3.2333,4.2681-3.2356Q19.3063,95.9056,26.4813,95.8913Z" style="fill:#b1e6f9"/><path d="M68.4418,73.1592C47.025,73.217,32.6592,50.4244,41.8737,31.1407c1.2075-2.527,2.6853-3.7722,5.5414-4.0462,11.4884-1.1022,22.9961-2.1739,34.2652-4.838,2.5541-.6038,3.4676.3494,4.1256,2.7294,1.8356,6.6393,4.323,12.9637,10.43,16.97,1.7475,1.1464,1.4,2.8544,1.2421,4.4882A29.569,29.569,0,0,1,68.4418,73.1592Z" style="fill:#fafdfe"/><path d="M68.3868,92.8911c-10.5453,0-21.0919-.0995-31.635.0538-3.6847.0536-4.42-1.0959-2.7321-4.3,2.9035-5.5114,7.0559-9.9571,11.5186-14.1757,1.6018-1.5142,2.8781-.7109,4.391.1534,12.19,6.9643,24.4444,7.0036,36.646.0574,1.7475-.9948,3.0507-1.5618,4.7662.1217,4.2641,4.1844,8.345,8.4745,11.2039,13.8157,1.5939,2.9779,1.4469,4.4022-2.524,4.3344C89.4792,92.7723,78.932,92.8912,68.3868,92.8911Z" style="fill:#f6fcfe"/></g></svg>