<svg id="Layer_1" data-name="Layer 1" xmlns="http://www.w3.org/2000/svg" viewBox="0 0 131.5 112"><title>role-icons</title><g id="icon6.psd"><path d="M21.6356,97.8114c-1-6.933,2.74-12.0892,6.6312-17.0766a79.2093,79.2093,0,0,1,7.15-7.5983c1.5058-1.4773,2.5338-2.7484.24-4.3292-6.7948-9.34-9.3054-19.6392-6.8213-31.0024a6.3632,6.3632,0,0,0-.5487-4.76C20.8163,19.4642,31.9705,2.7,47.3286,3.6946a243.34,243.34,0,0,0,30.7993.4838c5.2121-.32,10.0544,2.014,13.9644,5.7116,4.1168,3.8933,5.2765,8.4323,2.97,13.5441-.9708,2.1511-.5533,3.5383.41,5.4461,6.834,13.5343,6,26.6414-3.0366,38.88-1.975,2.6749-1.6847,4.0138.5585,6.0845a52.7261,52.7261,0,0,1,11.3239,14.4222,17.1317,17.1317,0,0,1,1.6849,9.6615c-10.9195.053-21.8389.1686-32.7581.1445C56.0414,98.0353,38.8386,97.9035,21.6356,97.8114ZM36.9571,82.0832l-.1927,3.4922c-5.7781-.175-7.3709,3.5307-7.754,8.3582-.5961.3917-.9725,1.1038-.4052,1.5094A2.6307,2.6307,0,0,0,32.06,95.21l1.0529-.2087c3.0174-.09,6.0056,2.2764,9.0477.1073a8.4216,8.4216,0,0,0,4.9053-1.2526l3.9033.1187c1.9906,3.26,4.0083.6754,6.017.0278l3.9573-.0351c.2544,1.2044.4611,2.5094,2.0227.96l7.9372-.9577c.28,1.1825.4911,2.5158,2.0342.9264,2.6072.0755,5.1178,1.7632,7.73.8519,4.5839-1.5994,9.2783.9829,13.9033-.6334,1.2708-.4441,3.3807,1.7361,4.5079.1853,1.0963-1.5083-.3922-3.3682-1.0834-4.9635-1.1031-2.5456-2.8175-4.4266-5.8254-4.63-.374-1.2314.1682-2.6831-.9044-3.7474a8.8616,8.8616,0,0,0-5.3617-5.1035c-1.6949-1.8016-2.7049.2267-3.9905.7133l-5.82,2.5666L66.1265,82.16q-2.1337-.04-4.2657-.0823l-3.75-.36c-1.4616-1.25-3.2693-.5542-4.8969-.871L49.0558,79.95c-2.098-2.629-4.4762-4.5284-8.1251-3.1179C39.49,78.4951,36.9725,79.3428,36.9571,82.0832ZM92.706,51.7891a67.2808,67.2808,0,0,1-13.289,1.9376C74.2728,53.991,70.15,52.5213,68.84,46.916c-.6546-2.8-2.0766-4.4721-5.0834-4.3327-2.9085.1348-4.2692,1.7962-5.01,4.5816-1.164,4.3788-4.1069,6.5533-8.8488,6.2885-3.8082-.2126-7.6711.0591-11.3457-1.1524-3.6572-1.2059-3.5243.43-2.6333,3.0782a31.2974,31.2974,0,0,0,9.9077,14.0436c2.08,1.76,2.7437.9275,3.93-1.06,6.45-10.8038,21.7422-10.8474,27.7491.04,1.6587,3.0063,2.71,2.4653,4.6739.794A30.0466,30.0466,0,0,0,92.706,51.7891ZM64.07,39.3921c7.51-2.8638,15.5876-2.2885,23.6316-2.3872,1.2025-.0148,3.0347.7813,3.476-.7787.2909-1.0279-.6258-2.4514-1.135-3.6407-1.2426-2.9021-3.15-1.2267-4.9716-.7244C74.4113,34.8,64.3846,34.62,56.1666,25.8047a4.2431,4.2431,0,0,0-1.9409-1.38C49.8974,23.548,38.8093,29.7094,37.07,33.783c-.75,1.756-1.3417,3.1508,1.5589,3.1443C46.9936,36.9088,55.3854,36.5457,64.07,39.3921ZM47.3165,49.0685c1.3617,0,2.5256.1,3.6664-.0191,3.2449-.34,3.7313-2.98,3.9889-5.4046.3222-3.0327-2.3322-2.2118-3.8672-2.307-3.777-.2344-7.5743-.1189-11.36-.2408-1.89-.0608-3.1811.396-3.4908,2.52-.3124,2.1428.45,3.5456,2.524,4.14A25.24,25.24,0,0,0,47.3165,49.0685Zm35.2576-7.9419-.0007.2542a53.6672,53.6672,0,0,0-5.9261.0527c-1.5425.1723-4.1938-.8121-3.8922,2.2485.22,2.2313.5459,5.0246,3.4354,5.3577a27.63,27.63,0,0,0,13.1766-1.2575c1.8548-.7079,2.1968-2.1786,1.9579-4.0308-.265-2.0546-1.2863-2.8016-3.3079-2.6528C86.2119,41.2315,84.3891,41.1266,82.5741,41.1266ZM63.4355,66.1632c-5.7385.0183-7.9638,2.179-6.9912,6.7566.1751.8243.32,1.6675,1.2252,1.9541.94.2975,1.37-.3513,1.9427-1.0326,3.5053-4.1713,4.7505-4.1979,8.0958-.12.5477.6677.8907,1.4135,1.83,1.2093.9355-.2033,1.0919-1.0391,1.2664-1.8831C71.7949,68.2577,69.5493,66.1437,63.4355,66.1632Z" style="fill:#0ab0ef"/><path d="M21.6356,97.8114c17.203.0921,34.4058.2239,51.6089.2618,10.9192.0241,21.8386-.0915,32.7581-.1445,4.6039.0181,9.2078.0518,13.8117.0484,2.6155-.002,4.7251.9271,4.8328,3.7547.13,3.4084-2.5914,3.1709-4.9226,3.2q-4.9309.0609-9.8615.1279-49.837-.063-99.6742-.1938c-2.6067-.0111-6.9039,1.6295-6.8561-3.1784.0416-4.1826,3.8588-3.6957,6.8451-3.724C13.9972,97.927,17.8164,97.8633,21.6356,97.8114Z" style="fill:#ade5f9"/><path d="M92.706,51.7891A30.0466,30.0466,0,0,1,82.18,69.1963c-1.9641,1.6713-3.0152,2.2123-4.6739-.794-6.0069-10.887-21.2994-10.8434-27.7491-.04-1.1866,1.9876-1.85,2.82-3.93,1.06a31.2974,31.2974,0,0,1-9.9077-14.0436c-.891-2.6479-1.0239-4.2841,2.6333-3.0782,3.6746,1.2115,7.5375.94,11.3457,1.1524,4.7419.2648,7.6848-1.91,8.8488-6.2885.74-2.7854,2.1011-4.4468,5.01-4.5816,3.0068-.1394,4.4288,1.5327,5.0834,4.3327,1.3105,5.6053,5.4331,7.075,10.5773,6.8107A67.2808,67.2808,0,0,0,92.706,51.7891Z" style="fill:#f3fafd"/><path d="M64.07,39.3921c-8.6849-2.8464-17.0767-2.4833-25.4415-2.4648-2.9006.0065-2.3087-1.3883-1.5589-3.1443,1.7394-4.0736,12.8275-10.235,17.1558-9.3581a4.2431,4.2431,0,0,1,1.9409,1.38C64.3846,34.62,74.4113,34.8,85.0713,31.8611c1.8219-.5023,3.729-2.1777,4.9716.7244.5092,1.1893,1.4259,2.6128,1.135,3.6407-.4413,1.56-2.2735.7639-3.476.7787C79.6579,37.1036,71.58,36.5283,64.07,39.3921Z" style="fill:#edf8fd"/><path d="M47.3165,49.0685a25.24,25.24,0,0,1-8.539-1.3112c-2.0737-.5945-2.8364-1.9973-2.524-4.14.31-2.1242,1.6007-2.581,3.4908-2.52,3.786.1219,7.5833.0064,11.36.2408,1.535.0952,4.1894-.7257,3.8672,2.307-.2576,2.4244-.744,5.0649-3.9889,5.4046C49.8421,49.1688,48.6782,49.0685,47.3165,49.0685Z" style="fill:#ebf8fd"/><path d="M82.5741,41.1266c1.815,0,3.6378.1049,5.443-.028,2.0216-.1488,3.0429.5982,3.3079,2.6528.2389,1.8522-.1031,3.3229-1.9579,4.0308A27.63,27.63,0,0,1,76.1905,49.04c-2.8895-.3331-3.2156-3.1264-3.4354-5.3577-.3016-3.0606,2.35-2.0762,3.8922-2.2485a53.6672,53.6672,0,0,1,5.9261-.0527Z" style="fill:#edf8fd"/><path d="M70.9034,93.9687l-7.9371.9577.0488-1.96c3.2348.2923,3.0464-1.9135,2.9558-4.0479l5.96.0059c-.4252,3.179.9708,4.5076,4.121,4.054,1.3894.4554,3.2847,2.0611,3.6913-.7267.4143-2.8405-2.0426-2.1644-3.6917-2.2923q-.09-.4863-.1381-.9788l5.0752.4186c.8946,2.2867,1.9875,4.2949,5.0219,3.5748,4.0779,2.1844,3.961-.5425,3.8371-3.2776l1.7238-.1158c.4236,1.4716.18,3.5193,2.6695,3.26a1.6566,1.6566,0,0,0,1.5406-2.0724c-.3336-2.5148-2.3673-1.6011-3.8389-1.8053L91.7842,86.06q.1884-.1842.3881-.356c3.0051.2052,4.7195,2.0862,5.8226,4.6318.6912,1.5953,2.18,3.4552,1.0834,4.9635-1.1272,1.5508-3.2371-.6294-4.5079-.1853-4.625,1.6163-9.3194-.966-13.9033.6334-2.6117.9113-5.1223-.7764-7.73-.8516A1.9081,1.9081,0,0,0,70.9034,93.9687Z" style="fill:#63ccf4"/><path d="M63.4355,66.1632c6.1138-.02,8.3594,2.0945,7.369,6.8844-.1745.844-.3309,1.68-1.2664,1.8831-.9394.2042-1.2824-.5416-1.83-1.2093-3.3453-4.078-4.59-4.0514-8.0958.12-.5726.6813-1.0024,1.33-1.9427,1.0326-.9056-.2866-1.05-1.13-1.2252-1.9541C55.4717,68.3422,57.697,66.1815,63.4355,66.1632Z" style="fill:#e1f5fc"/><path d="M65.9709,88.9186c.0906,2.1345.279,4.34-2.9563,4.0475q-.4926-.0372-.9851-.0506-.0431-2.0058-.086-4.0112a1.9324,1.9324,0,0,0-.05-2.8338l-.0346-3.99q2.1337.04,4.2661.0785.0123,2.0212.027,4.0456C65.1155,87.0437,63.56,87.8491,65.9709,88.9186Z" style="fill:#2ebcf0"/><path d="M42.1606,95.1081c-3.0421,2.1691-6.03-.1973-9.0483-.1079-1.7152-6.0035-1.65-6.1049,3.7814-5.8581-.4291,3.8775,1.29,5.4537,5.1175,4.7717Z" style="fill:#4cc5f2"/><path d="M36.8927,89.1436c-5.43-.2483-5.4956-.1469-3.78,5.8566q-.5256.1053-1.0521.2071c-.5821-1.4677-1.8724-1.2354-3.05-1.2737.3831-4.8275,1.9759-8.5332,7.754-8.3582a5.6109,5.6109,0,0,1,.3336.4772q-.0236,1.4337-.0466,2.8687Z" style="fill:#76d2f5"/><path d="M56.9862,94.002c-2.0087.6476-4.0264,3.2321-6.0168-.0282,1.6738-1.2858.7144-3.2129,1.1686-4.7971q2.3733-.0843,4.7481-.1653l.0385.0494Z" style="fill:#3dc0f1"/><path d="M40.9307,76.8323c3.6489-1.41,6.0271.4891,8.1247,3.1183a3.61,3.61,0,0,0-2.11,2.1884q-2.3868.045-4.7747.0931l-.2056-.3612C41.95,80.1237,42.9606,78.166,40.9307,76.8323Z" style="fill:#76d2f5"/><path d="M66.1525,86.2046q-.0144-2.0239-.0274-4.046,4.9854-1.01,9.9679-2.024-.012.8341-.0241,1.6691c-3.1522-.3009-4.5712,1.1045-4.2058,4.2676Z" style="fill:#63ccf4"/><path d="M42.1606,95.1081q-.0747-.5971-.1493-1.1941.0261-2.4511.0518-4.9026l.001-.0361,4.7836.2441.2182,4.6361A8.4216,8.4216,0,0,1,42.1606,95.1081Z" style="fill:#3dc0f1"/><path d="M46.9451,82.1407a3.6113,3.6113,0,0,1,2.11-2.19q2.0795.4481,4.156.8974a6.1487,6.1487,0,0,0-1.1082,4.9358l-.2214.3166q-2.3955-.0206-4.7921-.04l-.2423-.3647Z" style="fill:#6bcef4"/><path d="M56.9862,94.002q-.0307-2.4706-.0612-4.9419,2.51-.0788,5.0184-.156.0431,2.0057.0854,4.0115-.5434.5258-1.0853,1.0513Z" style="fill:#6bcef4"/><path d="M52.1038,85.7827a6.1446,6.1446,0,0,1,1.1076-4.9347c1.63.3158,3.4373-.38,4.8983.8723-1.5073,1.0964-1.0583,2.7232-1.1455,4.2039l.0314.0393Z" style="fill:#3dc0f1"/><path d="M47.0659,93.8555q-.109-2.318-.2175-4.638l.1733-.2918,4.9236-.0483.1934.301c-.4549,1.5825.5045,3.51-1.1693,4.7954Q49.0175,93.915,47.0659,93.8555Z" style="fill:#6bcef4"/><path d="M91.2681,81.9585c1.07,1.0642.5274,2.5159.9028,3.7462-.1317.1135-.2611.2321-.3863.3546q-2.9319-.04-5.8644-.0787l-.0919-3.9392.2764-.2755Z" style="fill:#63ccf4"/><path d="M81.9129,77.5682c1.2856-.4866,2.2956-2.5149,3.9905-.7128q.1007,2.4558.2013,4.91l-.2756.2747q-1.9507-.0353-3.903-.0689Z" style="fill:#63ccf4"/><path d="M56.9642,85.9242c.0872-1.4807-.3618-3.1075,1.1455-4.2039q1.8762.1766,3.75.3588.016,1.9967.034,3.9909Q59.4294,85.9967,56.9642,85.9242Z" style="fill:#63ccf4"/><path d="M36.7644,85.5754q.0964-1.7461.1929-3.4925,2.5043-.1063,5.0081-.212l.2048.3595q-.0644,1.8445-.1272,3.6924l-4.9446.13A5.62,5.62,0,0,0,36.7644,85.5754Z" style="fill:#63ccf4"/><path d="M81.9129,77.5682l.0132,4.4035-.0026.0021-5.85-.15-.0038-.0206q.0117-.8345.0237-1.6686Q79.0032,78.8517,81.9129,77.5682Z" style="fill:#daf3fc"/><path d="M86.1047,81.7659q-.1006-2.4551-.2013-4.91c2.6345.811,4.2167,2.7275,5.3632,5.1031Z" style="fill:#c9edfb"/><path d="M41.9654,81.8709q-2.504.1059-5.0081.212c.0152-2.74,2.533-3.5878,3.9734-5.25C42.9606,78.166,41.95,80.1237,41.9654,81.8709Z" style="fill:#e1f5fc"/><path d="M29.01,93.9336c1.1774.0383,2.4677-.194,3.05,1.2737a2.6287,2.6287,0,0,1-3.455.2357C28.0379,95.0374,28.4143,94.3253,29.01,93.9336Z" style="fill:#4cc5f2"/><path d="M60.9435,93.9669q.5422-.5256,1.0853-1.0513.4938.0135.9858.05-.0236.9806-.0483,1.96C61.4046,96.4763,61.1979,95.1713,60.9435,93.9669Z" style="fill:#3dc0f1"/><path d="M70.9034,93.9687a1.9081,1.9081,0,0,1,2.0342.9267C71.3945,96.4845,71.1833,95.1512,70.9034,93.9687Z" style="fill:#3dc0f1"/><path d="M81.9261,81.9717q1.9519.0341,3.903.0689.0448,1.9708.0911,3.94c-3.1329,1.672-.72,2.4757.542,3.46l-.45,3.5347c-3.0356.7195-4.1285-1.2887-5.0228-3.5766,1.2353-.8716,2.2263-1.8044.853-3.3405l.0812-4.0839Z" style="fill:#2ebcf0"/><path d="M71.8631,86.0713c-.3654-3.1631,1.0536-4.5685,4.2058-4.2676l.0036.0208q-.0581,2.0881-.1148,4.1749c-2.0635.9637-1.9571,1.9593-.0439,2.9814q.048.4925.1368.9787,0,1.5093.0017,3.0191c-3.15.4536-4.5462-.875-4.121-4.0539A1.9182,1.9182,0,0,0,71.8631,86.0713Z" style="fill:#2ebcf0"/><path d="M86.4622,89.44c-1.262-.9839-3.6749-1.7876-.542-3.46q2.9324.0393,5.8644.0788.0788,1.4523.1581,2.9039a1.2613,1.2613,0,0,0-.3709.6176q-.8619.0579-1.7231.1183Q88.1561,89.5721,86.4622,89.44Z" style="fill:#daf3fc"/><path d="M75.9138,88.9808c-1.9132-1.0221-2.02-2.0177.0438-2.9816l5.8847.0585c1.3733,1.5361.3823,2.4689-.853,3.3405Q78.4513,89.1908,75.9138,88.9808Z" style="fill:#daf3fc"/><path d="M71.8631,86.0713a1.9182,1.9182,0,0,1,.0682,2.8534l-5.96-.006c-2.411-1.07-.8554-1.875.1812-2.7145Q69.0081,86.1382,71.8631,86.0713Z" style="fill:#e1f5fc"/><path d="M91.5718,89.5808a1.2613,1.2613,0,0,1,.3709-.6176c1.4719.2043,3.5056-.7094,3.8392,1.8054a1.6566,1.6566,0,0,1-1.5406,2.0724C91.7515,93.1,91.9954,91.0524,91.5718,89.5808Z" style="fill:#3dc0f1"/><path d="M86.4622,89.44q1.6937.1306,3.3865.259c.1232,2.7326.24,5.46-3.8378,3.2751Q86.2377,91.2077,86.4622,89.44Z" style="fill:#6bcef4"/><path d="M76.0523,92.9786q-.0015-1.51-.0017-3.0191c1.65.128,4.1073-.5481,3.693,2.2924C79.337,95.04,77.4417,93.434,76.0523,92.9786Z" style="fill:#6bcef4"/><path d="M56.9642,85.9242q2.465.0726,4.93.1458a1.9332,1.9332,0,0,1,.05,2.8343q-2.5092.0774-5.0185.1558l-.0386-.049q.0549-1.524.1092-3.0476Z" style="fill:#ebf8fd"/><path d="M42.0631,89.0114q-.0258,2.4515-.0518,4.9026c-3.8273.6818-5.5467-.8944-5.1176-4.7719l.1576-.2206Q39.5571,88.9667,42.0631,89.0114Z" style="fill:#6bcef4"/><path d="M42.0631,89.0114q-2.5059-.0448-5.0118-.09.0233-1.4349.0467-2.8689,2.4729-.0644,4.945-.13l-.0338.0409.0551,3.0117Z" style="fill:#ebf8fd"/><path d="M56.9956,85.9635q-.0545,1.5237-.1092,3.0476-2.3748.0822-4.7484.1656l-.1923-.2988q-.0318-1.3879-.0644-2.7769l.2219-.3172Q54.55,85.8726,56.9956,85.9635Z" style="fill:#76d2f5"/><path d="M42.043,85.9228q.0632-1.8469.1272-3.6924,2.3888-.0448,4.7755-.0914-.05,1.78-.0976,3.5585-2.4188.1347-4.8389.2662Z" style="fill:#2ebcf0"/><path d="M42.0092,85.9637q2.42-.1323,4.8389-.2662l.2412.3626q-.0343,1.4322-.0676,2.8656l-.1733.2918q-2.3928-.1192-4.7843-.2422Q42.0368,87.47,42.0092,85.9637Z" style="fill:#76d2f5"/><path d="M47.0217,88.9257q.0336-1.4331.0676-2.8656,2.3968.02,4.7925.04.0317,1.39.0639,2.7775Q49.4833,88.9013,47.0217,88.9257Z" style="fill:#edf8fd"/><path d="M81.8423,86.0577l-5.8847-.0585q.0573-2.0868.1149-4.1747,2.926.0739,5.851.1493Q81.8828,84.0158,81.8423,86.0577Z" style="fill:#63ccf4"/></g></svg>