<svg id="Layer_1" data-name="Layer 1" xmlns="http://www.w3.org/2000/svg" viewBox="0 0 136 117"><title>role-icons</title><g id="icon4.psd"><path d="M86.776,16.9818c13.9636,8.5817,20.15,21.2662,20.359,37.2777.1587,12.1872.7125,24.369.9233,36.5561.0687,3.97,2.5765,7.5648,1.5849,11.64l-84.5782.0474C23.7943,97.53,27.2206,93.36,27.4344,88.58c.6824-15.2545,1.0459-30.5588,2.6549-45.7272,1.8271-17.2249,15.8724-28.9353,33.298-29.2643C71.39,13.4372,79.3291,13.4823,86.776,16.9818ZM38.5372,47.4306C36.4123,58.7662,42.191,70.4667,52.5672,76.44a29.43,29.43,0,0,0,33.527-2.7979c7.3235-5.9582,11.116-14.758,8.9052-21.0461-2.2326,6.0777-5.87,10.1466-12.9078,9.4987-6.087-.56-9.178-4.4976-11.4436-9.6553-.8393-1.9107.2754-5.58-2.678-5.4765-2.3036.0811-1.602,3.5358-2.268,5.4614-2.2129,6.3974-6.6472,9.9085-12.719,9.8612-6.4541-.05-9.53-2.6142-12.0029-9.7037C40.4164,50.9651,40.71,48.9374,38.5372,47.4306Zm18.762,49.2526c11.7782-.0059,25.4629-3.5917,34.2815-8.831,1.0864-.6455,3.5064-1.1115,1.7733-3.0555C91.2,82.3812,89.5356,79.3615,84.88,82.1085c-10.3878,6.1284-21.4981,6.2419-32.5476,1.454-7.2847-3.1565-7.2341-3.2771-12.5609,2.5317-.7824.8531-1.4892,1.7789-2.3133,2.5888-2.3259,2.2858-1.4127,3.4337,1.2757,4.4454A50.1216,50.1216,0,0,0,57.2992,96.6832Zm12.6877-56.36c-6.82-3.5858-13.5279-6.9633-19.0826-12.1367-.7232-.6734-1.5629-.3231-2.2272.2456-4.2375,3.6277-7.7292,7.7162-9.3459,14.83C49.8229,35.8279,59.8954,41.6261,69.9869,40.3234Z" style="fill:#06afef"/><path d="M25.065,102.5034l84.5782-.0474c3.9887.0375,7.98.0091,11.9657.1353,2.7168.0861,6.259-.5757,6.2152,3.6783-.0424,4.1186-3.51,3.1773-5.9867,3.1808q-46.3808.0664-92.7618.0363c-2.3245.0008-4.649.108-6.9733.1681-3.4742-.0609-6.9488-.1843-10.4228-.1666-2.4265.0124-5.0826.0588-5.2541-3.0358-.1868-3.37,2.7536-3.7346,5.2274-3.84C16.1168,102.4225,20.5936,102.5237,25.065,102.5034Z" style="fill:#aee5f9"/><path d="M38.5372,47.4306c2.1728,1.5068,1.8792,3.5345,2.4429,5.1507,2.4728,7.09,5.5488,9.6534,12.0029,9.7037,6.0718.0473,10.5061-3.4638,12.719-9.8612.666-1.9256-.0356-5.38,2.268-5.4614,2.9534-.1039,1.8387,3.5658,2.678,5.4765,2.2656,5.1577,5.3566,9.0949,11.4436,9.6553,7.0376.6479,10.6752-3.421,12.9078-9.4987,2.2108,6.2881-1.5817,15.0879-8.9052,21.0461A29.43,29.43,0,0,1,52.5672,76.44C42.191,70.4667,36.4123,58.7662,38.5372,47.4306Z" style="fill:#f5fbfd"/><path d="M57.2992,96.6832a50.1216,50.1216,0,0,1-18.5658-3.5548c-2.6884-1.0117-3.6016-2.16-1.2757-4.4454.8241-.81,1.5309-1.7357,2.3133-2.5888,5.3268-5.8088,5.2762-5.6882,12.5609-2.5317,11.05,4.7879,22.16,4.6744,32.5476-1.454,4.6561-2.747,6.3209.2727,8.4745,2.6882,1.7331,1.944-.6869,2.41-1.7733,3.0555C82.7621,93.0915,69.0774,96.6773,57.2992,96.6832Z" style="fill:#f4fbfd"/><path d="M69.9869,40.3234c-10.0915,1.3027-20.164-4.4955-30.6557,2.9387,1.6167-7.1136,5.1084-11.2021,9.3459-14.83.6643-.5687,1.504-.919,2.2272-.2456C56.459,33.36,63.1667,36.7376,69.9869,40.3234Z" style="fill:#eef9fd"/></g></svg>