<svg id="Layer_1" data-name="Layer 1" xmlns="http://www.w3.org/2000/svg" viewBox="0 0 134 108"><title>role-icons</title><g id="icon7.psd"><path d="M93.9253,67.9923c3.5373,4.319,7.7611,8.078,10.5008,13.049,1.8506,3.3578,3.3645,6.793,3.3173,10.7252q-.3594.0978-.7151.2092l-1.0858.9358c-2.1294.21-4.259.4242-6.31-.435q.6461-1.3207,1.2808-2.6308c-1.9366-7.6582-7.5241-12.7036-12.8188-17.9719-1.3215-1.3149-2.5028-1.1521-3.9674-.2327a35.1792,35.1792,0,0,1-26.3039,4.65c-2.7417-.5343-3.2234.4564-2.7635,2.8148.6981,3.58,1.3175,7.1748,1.97,10.7634l.2718,2.8073c-7.1593.188-14.4594,1.7319-21.1906-2.2007,2.6277.1134,3.3889-1.3511,3.2443-3.7107-.1122-1.8315.0076-3.8112-2.3671-4.244-1.9189-.35-4.0824-.7781-5.2786,1.3908-1.02,1.85-1.7357,3.8673-2.586,5.8107l.0663,2.7442-6.263.4915c-.2394-2.1645-.688-4.5952.4152-6.3877,3.34-5.4267,2.2583-11.107,1.9025-16.9063-.7562-12.3276-.391-24.6433,2.9748-36.6313,3.1133-11.089,8.1238-21.14,19.85-25.2055,28.1713-9.767,47.9084,5.7373,52.2113,25.49A34.6782,34.6782,0,0,1,93.62,62.9879C92.1843,64.8545,90.7319,66.5065,93.9253,67.9923ZM73.6015,20.4371C69.3748,26.35,63.8883,29.43,58.1052,32.09a90.3779,90.3779,0,0,1-18.36,6.31c-3.34.7327-4.15,2.242-3.9349,5.4751.987,14.8014,15.2457,27.5114,30.2435,26.7319C82.2394,69.7659,95.43,55.8839,94.6958,40.5205c-.097-2.0292-.4075-3.341-2.954-3.6219-6.0537-.6678-10.2745-4.3726-13.5959-9.1995C76.6525,25.5288,75.3418,23.233,73.6015,20.4371Z" style="fill:#06afef"/><path d="M99.6266,92.4818c2.0569.8539,4.1865.64,6.3158.43a.9847.9847,0,0,0,1.0859-.9359q.3556-.1115.7151-.2092c3.2778,2.5276,7.0611.6883,10.5744,1.2066,1.7919.2644,3.6548.1385,5.4116.525,1.6708.3676,2.3078,1.7212,2.1553,3.4441a2.8446,2.8446,0,0,1-2.7761,2.9434c-1.322.1123-2.6578.0824-3.9874.0826q-35.9259.006-71.8518.0291c-1.7671.0029-3.6854-.5893-5.2658.7986C30.7913,99.62,19.54,100.0423,8.3009,99.98,6.1225,99.968,4.125,99.5537,4.21,96.854c.0816-2.5965,1.842-3.7807,4.3058-3.8191,4.8031-.0748,9.6075-.0567,14.4114-.077q3.1314-.2457,6.2595-.4964c1.2236.133,2.277.0122,2.3449-1.5788l4.58-.4073C42.8423,94.408,50.1424,92.8641,57.3,92.6727c2.4135-.2539,4.9629.7123,7.24-.8,8.29-2.5087,16.58,1.1387,24.8694,0C92.7332,93.442,96.2067,92.5119,99.6266,92.4818Z" style="fill:#ade5f9"/><path d="M73.6015,20.4371c1.74,2.7959,3.051,5.0917,4.5444,7.262,3.3214,4.8269,7.5422,8.5317,13.5959,9.2,2.5465.2809,2.857,1.5927,2.954,3.6219C95.43,55.8839,82.2394,69.7659,66.054,70.6071c-14.9978.7795-29.2565-11.9305-30.2435-26.7319-.2156-3.2331.5947-4.7424,3.9349-5.4751a90.3779,90.3779,0,0,0,18.36-6.31C63.8883,29.43,69.3748,26.35,73.6015,20.4371Z" style="fill:#fafdfe"/><path d="M89.4087,91.8728c-8.29,1.1389-16.58-2.5085-24.87,0-1.6995-3.6782-5.185-.6666-7.5093-2.0043-.6528-3.5886-1.2722-7.1837-1.97-10.7634-.46-2.3584.0218-3.3491,2.7635-2.8148a35.1792,35.1792,0,0,0,26.3039-4.65c1.4646-.9194,2.6459-1.0822,3.9674.2327,5.2947,5.2683,10.8822,10.3137,12.8188,17.972-2.971.0956-5.9461.1289-8.911.3193C90.9187,90.2347,89.1756,89.66,89.4087,91.8728Z" style="fill:#f7fcfe"/><path d="M36.1111,90.4754l-4.5793.4074q-1.2038-.58-2.4081-1.1606c.85-1.9434,1.5659-3.961,2.586-5.8107,1.1962-2.1689,3.36-1.7406,5.2786-1.3908,2.3747.4328,2.2549,2.4125,2.3671,4.244C39.5,89.1243,38.7388,90.5888,36.1111,90.4754Z" style="fill:#ebf8fd"/><path d="M89.4087,91.8728c-.2331-2.2129,1.51-1.6381,2.5935-1.7077,2.9649-.19,5.94-.2237,8.911-.3193q-.6375,1.3125-1.2808,2.6307C96.2067,92.5119,92.7332,93.442,89.4087,91.8728Z" style="fill:#0ab0ef"/><path d="M57.03,89.8688c2.3243,1.3377,5.81-1.6739,7.5093,2.0043-2.2767,1.5119-4.8261.5457-7.24.8Q57.1669,91.2743,57.03,89.8688Z" style="fill:#0ab0ef"/><path d="M29.1237,89.7222q1.2042.58,2.4081,1.1606c-.0682,1.5909-1.1216,1.7117-2.3452,1.5787C29.1679,91.5517,29.1458,90.6369,29.1237,89.7222Z" style="fill:#0ab0ef"/><path d="M107.0283,91.9757a.9847.9847,0,0,1-1.0859.9359Z" style="fill:#0ab0ef"/></g></svg>